<svg xmlns="http://www.w3.org/2000/svg" xmlns:xlink="http://www.w3.org/1999/xlink" version="1.1" x="0px" y="0px" viewBox="0 0 100 125" style="enable-background:new 0 0 100 100;" xml:space="preserve"><path d="M11.4,88.6h77.2V11.4H11.4V88.6z M49.6,66.5c-1.7,0-3-1.4-3-3s1.4-3,3-3s3,1.4,3,3S51.2,66.5,49.6,66.5z M42.6,35  c2-1.9,4.7-2.9,7.4-2.8c5.1,0.2,9.4,4.5,9.6,9.6c0.2,4.3-2.3,8.3-6.3,9.8c-1,0.4-1.6,1.4-1.6,2.6v1.4h-4.2v-1.4  c0-2.9,1.7-5.5,4.3-6.5c2.3-0.9,3.8-3.2,3.7-5.7c-0.1-3-2.6-5.4-5.6-5.6c-1.6-0.1-3.2,0.5-4.3,1.6c-1.2,1.1-1.8,2.6-1.8,4.2h-4.2  C39.5,39.6,40.6,37,42.6,35z"/><text x="0" y="115" fill="#000000" font-size="5px" font-weight="bold" font-family="'Helvetica Neue', Helvetica, Arial-Unicode, Arial, Sans-serif">Created by mikicon</text><text x="0" y="120" fill="#000000" font-size="5px" font-weight="bold" font-family="'Helvetica Neue', Helvetica, Arial-Unicode, Arial, Sans-serif">from the Noun Project</text></svg>